# xmcd
#
# Track frame offsets:
#	150
#	23239
#	38198
#	59502
#	74634
#	92018
#	110914
#	133317
#	154945
#	185961
#	203249
#	208085
#	234594
#	249916
#	272791
#	277036
#	295108
#	317464
#
# Disc length: 4500 seconds
#
# Revision: 1
# Processed by: cddbd v1.5.2PL0 Copyright (c) Steve Scherf et al.
# Submitted via: EZCDAudioConverter 1.3.4.1
#
DISCID=23119212
DTITLE=John Martyn - 1986   Piece By Piece
DYEAR=1986
DGENRE=
TTITLE0=Nightline
TTITLE1=Lonely Love
TTITLE2=Angeline
TTITLE3=One Step Too Far
TTITLE4=Piece By Piece
TTITLE5=Serendipity
TTITLE6=Who Believes In Angels
TTITLE7=Love Of Mine
TTITLE8=John Wayne
TTITLE9=Tight Connection To My Heart (Has Anybody Seen My Love)
TTITLE10=Advertisement #1
TTITLE11=John Wayne [Take 1]
TTITLE12=Lonely Love [Take 1]
TTITLE13=Angeline [Take 1]
TTITLE14=Advertisement #2
TTITLE15=Piece By Piece [Take 1]
TTITLE16=Who Believes In Angels [Take 1]
TTITLE17=Love Of Mine [Take 1]
EXTD=
EXTT0=
EXTT1=
EXTT2=
EXTT3=
EXTT4=
EXTT5=
EXTT6=
EXTT7=
EXTT8=
EXTT9=
EXTT10=
EXTT11=
EXTT12=
EXTT13=
EXTT14=
EXTT15=
EXTT16=
EXTT17=
PLAYORDER=
